<svg width="82" height="20" viewBox="0 0 82 20" fill="none" xmlns="http://www.w3.org/2000/svg">
<path fill-rule="evenodd" clip-rule="evenodd" d="M81.7476 15.7899C78.3263 21.5906 72.9078 19.9075 71.2804 18.5896C70.5878 19.0595 69.3734 20.0895 67.754 19.9706C64.3052 19.7174 63.0702 14.789 63.0702 14.789C63.095 14.8087 62.0429 15.1521 61.4743 15.1459C61.467 16.5912 60.2176 20.0437 56.8459 19.9996C53.0624 19.9502 52.2932 14.3134 52.2932 14.3134C52.2932 14.3134 51.9166 14.8362 50.485 15.357C50.5571 14.2466 50.5044 19.8306 45.9696 19.9126C42.3846 19.9776 41.4169 14.2265 41.4169 14.2265C41.4169 14.2265 40.795 14.8725 39.5897 15.0966C39.6663 13.9681 39.5417 19.9316 35.0064 19.9126C31.9415 19.8999 30.8942 16.37 30.9756 15.88C31.0796 15.2556 29.9398 20.0004 26.9627 19.9265C25.7341 19.8905 24.8182 19.0009 24.2435 17.815C23.4741 18.6954 22.357 19.9265 21.1039 19.9265C18.8545 19.9265 17.8629 18.0451 18.0308 12.6716C18.0451 12.0343 17.9991 11.7836 17.3656 11.6882C16.9853 11.6248 16.5959 11.5047 16.1838 11.4413C16.0517 11.882 14.9315 19.7832 11.0797 19.9331C9.78744 19.9834 9.08086 18.864 8.50058 18.0332C7.61107 19.2099 6.43686 19.9706 4.7641 19.9706C1.93057 19.9706 0 17.6799 0 14.8543C0 12.0286 1.93057 9.73814 4.7641 9.73814C5.26509 9.73814 5.40573 9.80995 5.86342 9.94349C4.92217 1.3736 7.14504 0.0342436 9.08957 0.0342436C10.9564 0.0342436 14.1458 4.36719 9.65809 15.3578C10.6544 18.636 12.8024 18.4506 13.8345 11.7022C14.0446 10.3305 13.4829 8.47939 14.3566 8.22103C15.9537 7.74888 16.1231 9.1655 16.872 9.40153C17.6638 9.65099 18.1259 9.62664 18.8861 9.78538C20.185 10.039 20.6919 10.7368 20.5336 12.2909C20.3436 14.2573 20.0111 17.1193 21.0247 17.4681C21.7557 17.7215 23.0902 16.2057 23.3244 15.3763C23.5585 14.5468 23.6074 14.263 23.6282 13.6546C23.6599 12.3544 23.6997 11.4014 23.9214 10.4181C24.0163 10.0376 24.1244 9.78559 24.5549 9.76837C24.9091 9.75934 25.5569 9.65267 25.8421 9.87462C26.2222 10.1602 26.1746 10.45 26.131 11.2126C25.689 22.0862 29.0911 16.658 30.1055 12.3117C29.7443 7.39697 29.9923 0.12424 33.072 0.00226354C34.6738 -0.0611713 35.3819 1.22199 35.4598 2.17975C35.6801 4.88482 34.446 9.36572 32.8231 12.3791C31.8955 18.5278 36.8786 19.7435 37.6754 14.8357C36.3717 14.2158 34.9627 11.7068 36.1093 10.484C36.7526 9.79783 39.4307 10.7836 39.4745 12.9337C40.7882 12.5824 40.9636 11.8407 40.9818 11.9636C40.6207 7.04888 40.9556 0.124304 44.0356 0.00232633C45.6371 -0.0611085 46.3451 1.22205 46.423 2.17981C46.6433 4.88487 45.4092 9.36578 43.7865 12.3792C42.8588 18.5278 47.842 19.7436 48.6386 14.8358C47.6734 14.6495 45.6358 11.9808 46.8114 10.4841C47.4397 9.68429 50.108 11.3476 50.4067 13.0049C51.6687 12.6478 51.8401 11.9297 51.8581 12.0505C51.4969 7.13598 51.8319 0.211403 54.9119 0.0894261C56.5134 0.0259913 57.2214 1.30915 57.2993 2.26691C57.5196 4.97197 56.2855 9.45297 54.6626 12.4664C53.7351 18.615 58.7182 19.8306 59.515 14.9227C58.1886 14.7019 56.3034 11.8841 57.8207 10.4426C58.4269 9.86663 60.7432 11.3617 61.2854 13.0674C62.0387 13.0384 62.5077 12.7786 62.6082 12.7524C61.4055 6.98282 62.3008 0.0601973 65.614 0.00241092C67.4048 -0.028792 69.1555 0.970542 68.3871 6.45951C67.6536 11.6966 65.0169 13.8944 65.023 13.928C65.1764 14.5555 66.5294 19.8062 69.9365 17.0357C69.7601 16.6364 69.5836 16.2284 69.4849 15.7341C68.9202 12.8551 70.0293 9.60312 73.0442 9.07754C74.7715 8.77642 76.3986 9.61739 76.6559 11.5133C77.0792 14.6156 74.2779 16.8623 73.2126 17.3496C72.7355 17.0786 77.5376 20.1584 80.3874 13.9864C80.5527 13.6341 80.7519 13.6639 81.01 13.8455C81.1923 13.9738 82.2306 14.9574 81.7476 15.7899ZM6.82523 14.092C6.68023 13.6585 6.38265 12.7033 6.27742 12.2894C5.69788 11.7854 5.28422 11.7035 4.54032 11.7035C2.88715 11.7035 1.91413 13.232 1.91413 14.8802C1.91413 16.5282 2.97417 18.0569 4.62734 18.0569C6.06001 18.0569 7.15039 17.0828 7.48306 15.7039C7.25022 15.1663 7.01923 14.6722 6.82523 14.092ZM9.04907 2.30275C7.88746 2.30275 7.49342 5.07378 7.56988 7.43772C7.63753 9.52773 8.22154 11.3677 8.5245 12.1922C8.60142 12.2955 8.58713 12.2283 8.6558 12.3378C10.6727 7.9187 9.83616 2.30275 9.04907 2.30275ZM33.2379 2.3898C31.7366 2.21761 31.7463 8.47174 31.9327 9.87462C32.7124 8.62724 34.0669 2.72566 33.2379 2.3898ZM44.2012 2.3898C42.6998 2.21761 42.7095 8.47174 42.896 9.87462C43.6757 8.62724 45.0302 2.72566 44.2012 2.3898ZM55.0775 2.47681C53.5761 2.30463 53.5858 8.55879 53.7723 9.96176C54.5519 8.71427 55.9065 2.81265 55.0775 2.47681ZM65.7797 2.02369C63.4406 2.49341 63.9853 10.2925 64.3406 11.6603C67.0959 7.87595 67.1526 1.88154 65.7797 2.02369ZM74.5462 11.7699C74.4273 11.2726 73.8326 11.0068 73.4222 11.0723C72.2477 11.2328 71.1086 12.6955 71.5495 14.9225C71.6477 15.4185 71.8933 15.875 71.8893 15.8599C74.5178 14.0964 74.7412 12.7068 74.5462 11.7699ZM25.0154 8.04695C24.6797 8.04702 24.3515 7.94753 24.0724 7.76108C23.7933 7.57462 23.5757 7.30959 23.4471 6.99947C23.3186 6.68935 23.285 6.34809 23.3505 6.01886C23.4159 5.68961 23.5776 5.38718 23.8149 5.1498C24.0523 4.91242 24.3547 4.75076 24.6839 4.68526C25.0131 4.61976 25.3544 4.65336 25.6645 4.78183C25.9747 4.91029 26.2397 5.12783 26.4262 5.40695C26.6127 5.68607 26.7122 6.01422 26.7122 6.3499C26.7122 6.57275 26.6684 6.79342 26.583 6.9993C26.4978 7.2052 26.3729 7.39227 26.2153 7.54986C26.0576 7.70744 25.8706 7.83245 25.6648 7.91774C25.4589 8.00304 25.2383 8.04694 25.0154 8.04695Z" fill="white"/>
</svg>
