<svg xmlns="http://www.w3.org/2000/svg" viewBox="0 0 180 123.98"><defs><style>.cls-1{fill:#fff;}</style></defs><g id="Layer_2" data-name="Layer 2"><g id="Layer_1-2" data-name="Layer 1"><path class="cls-1" d="M140,0c-19,0-33.09,10.17-38.06,26.36a18.05,18.05,0,0,0-23.84,0C73.11,10.17,59.05,0,40,0,16.08,0,0,16.08,0,40s16.08,40,40,40c13.69,0,24.8-5.26,31.82-14.24V89H100V80.79H80.05V40A10,10,0,0,1,100,40h0c0,23.94,16.09,40,40,40S180,64,180,40,163.92,0,140,0ZM40,71.83C20.7,71.83,8.21,59.35,8.21,40S20.7,8.21,40,8.21,71.83,20.7,71.83,40,59.35,71.83,40,71.83Zm100,0c-19.33,0-31.81-12.48-31.81-31.81S120.65,8.21,140,8.21,171.79,20.7,171.79,40,159.3,71.83,140,71.83Z"/><path class="cls-1" d="M90,115.77A35.66,35.66,0,0,1,55.14,88.18l-8,1.87a44,44,0,0,0,85.72,0l-8-1.87A35.66,35.66,0,0,1,90,115.77Z"/><path class="cls-1" d="M40,21.91c-11.75,0-22,7.25-27.8,18.11C18,50.89,28.27,58.14,40,58.14s22-7.25,27.81-18.12C62.07,29.16,51.78,21.91,40,21.91Zm0,30.88A12.77,12.77,0,1,1,52.79,40,12.76,12.76,0,0,1,40,52.79Z"/><path class="cls-1" d="M140,21.91c-11.76,0-22,7.25-27.8,18.11,5.75,10.87,16,18.12,27.8,18.12s22-7.25,27.8-18.12C162,29.16,151.73,21.91,140,21.91Zm0,30.88A12.77,12.77,0,1,1,152.74,40,12.77,12.77,0,0,1,140,52.79Z"/></g></g></svg>