<svg width="80" height="20" viewBox="0 0 80 20" fill="none" xmlns="http://www.w3.org/2000/svg">
<path d="M24.1667 11.3417V17.0833H21.25V12.0333C21.25 10.4917 20.3875 9.85 19.5833 9.85C19.0314 9.8343 18.4959 10.0383 18.0943 10.4172C17.6927 10.7961 17.458 11.319 17.4417 11.8708C17.4375 11.9416 17.4375 12.0126 17.4417 12.0833V17.0833H14.5833V7.5H17.3333V8.85417H17.3708C17.6583 8.26667 18.8875 7.29167 20.5625 7.29167C22.2375 7.29167 24.1667 8.425 24.1667 11.3417ZM10 17.0833H12.9167V7.5H10V17.0833ZM11.4583 2.6875C11.1255 2.69161 10.8013 2.79406 10.5266 2.98197C10.2518 3.16987 10.0388 3.43484 9.91422 3.74353C9.78968 4.05222 9.75922 4.39084 9.82667 4.7168C9.89412 5.04276 10.0565 5.34149 10.2933 5.57541C10.5301 5.80933 10.8308 5.968 11.1575 6.03144C11.4843 6.09488 11.8225 6.06027 12.1297 5.93195C12.4368 5.80364 12.6991 5.58736 12.8837 5.31032C13.0682 5.03328 13.1666 4.70786 13.1667 4.375C13.1667 3.93297 12.9911 3.50905 12.6785 3.19649C12.3659 2.88393 11.942 2.70833 11.5 2.70833L11.4583 2.6875ZM79.1667 1.45833V18.5417C79.1667 18.9284 79.013 19.2994 78.7395 19.5729C78.466 19.8464 78.0951 20 77.7083 20H60.625C60.2382 20 59.8673 19.8464 59.5938 19.5729C59.3203 19.2994 59.1667 18.9284 59.1667 18.5417V1.45833C59.1667 1.07156 59.3203 0.700626 59.5938 0.427136C59.8673 0.153645 60.2382 0 60.625 0L77.7083 0C78.0951 0 78.466 0.153645 78.7395 0.427136C79.013 0.700626 79.1667 1.07156 79.1667 1.45833ZM65 7.5H62.0833V17.0833H65V7.5ZM65.25 4.375C65.2541 4.03716 65.1579 3.70569 64.9736 3.42251C64.7893 3.13932 64.5252 2.91715 64.2147 2.78407C63.9041 2.65098 63.5611 2.61298 63.2289 2.67485C62.8968 2.73673 62.5904 2.8957 62.3486 3.13168C62.1068 3.36766 61.9404 3.67003 61.8705 4.00058C61.8005 4.33112 61.8301 4.67499 61.9556 4.98869C62.0811 5.3024 62.2968 5.57185 62.5754 5.76299C62.854 5.95412 63.183 6.05835 63.5208 6.0625H63.5417C63.7606 6.06804 63.9784 6.0304 64.1827 5.95172C64.3871 5.87304 64.5739 5.75487 64.7325 5.60396C64.8912 5.45306 65.0185 5.27237 65.1073 5.07222C65.1961 4.87207 65.2446 4.65639 65.25 4.4375V4.375ZM76.25 11.3417C76.25 8.425 74.3208 7.29167 72.6458 7.29167C70.9708 7.29167 69.7292 8.26667 69.4542 8.85417H69.4167V7.5H66.6667V17.0833H69.5833V12.0833C69.5833 10.5458 70.6292 9.8625 71.6458 9.8625C72.4792 9.8625 73.3333 10.5042 73.3333 12.0458V17.0833H76.25V11.3417ZM3.33333 2.91667H0V17.0833H8.75V14.1667H3.33333V2.91667ZM45 12.4042V13.2375H37.9167C37.9218 13.2994 37.9373 13.3599 37.9625 13.4167C38.2042 14.2208 39.075 14.9 40.3583 14.9C40.7631 14.9203 41.1672 14.8466 41.5387 14.6847C41.9103 14.5228 42.2393 14.277 42.5 13.9667L44.625 15.2917C44.1073 15.9436 43.4433 16.4643 42.6868 16.8118C41.9304 17.1593 41.1027 17.3237 40.2708 17.2917C37.475 17.2917 35 15.5917 35 12.3292C35 9.06667 37.5 7.29167 40.1833 7.29167C42.8667 7.29167 45 9.0875 45 12.4042ZM42.0833 11.25C42.0833 10.25 41.4333 9.425 40.1042 9.425C38.8542 9.425 37.9833 10.2583 37.9167 11.25H42.0833ZM35.525 7.5H31.95L28.8083 11.4042H28.75V2.91667H25.8333V17.0833H28.75V12.5H28.8083L32.025 17.0833H35.6792L31.75 11.8458L35.525 7.5ZM53.3333 2.91667H56.25V17.0833H53.5V15.8333H53.4625C53.0958 16.4667 52.1125 17.2875 50.3792 17.2875C48.2958 17.2875 45.8333 15.775 45.8333 12.2875C45.8333 9.15 47.9583 7.30833 50.3417 7.30833C50.8939 7.30028 51.4417 7.40726 51.9503 7.62247C52.4589 7.83767 52.9171 8.15639 53.2958 8.55833H53.3333V2.91667ZM53.4583 12.2875C53.4667 11.9734 53.413 11.6607 53.3004 11.3674C53.1879 11.074 53.0186 10.8057 52.8023 10.5778C52.586 10.3499 52.3269 10.1668 52.0398 10.0391C51.7527 9.91135 51.4433 9.84143 51.1292 9.83333H51.0667C50.4551 9.81879 49.8628 10.0476 49.4198 10.4695C48.9769 10.8913 48.7195 11.4718 48.7042 12.0833C48.7042 12.1458 48.7042 12.2042 48.7042 12.2667C48.6855 12.5731 48.7275 12.8802 48.8275 13.1704C48.9276 13.4606 49.0839 13.7283 49.2874 13.9581C49.4909 14.1879 49.7377 14.3754 50.0137 14.5099C50.2896 14.6443 50.5894 14.7231 50.8958 14.7417H51.0625C51.7053 14.7329 52.3184 14.4696 52.7675 14.0096C53.2166 13.5496 53.465 12.9303 53.4583 12.2875Z" fill="white"/>
</svg>
